<?xml version="1.0" encoding="UTF-8" standalone="no"?>
<svg
   xmlns:dc="http://purl.org/dc/elements/1.1/"
   xmlns:cc="http://creativecommons.org/ns#"
   xmlns:rdf="http://www.w3.org/1999/02/22-rdf-syntax-ns#"
   xmlns:svg="http://www.w3.org/2000/svg"
   xmlns="http://www.w3.org/2000/svg"
   xmlns:sodipodi="http://sodipodi.sourceforge.net/DTD/sodipodi-0.dtd"
   xmlns:inkscape="http://www.inkscape.org/namespaces/inkscape"
   id="ab82d996-d758-4a94-9ad9-9e4bd5f70489"
   data-name="Layer 1"
   width="949.57"
   height="703.65"
   viewBox="0 0 949.57 703.65"
   version="1.1"
   sodipodi:docname="fundo4.svg"
   inkscape:version="0.92.4 (5da689c313, 2019-01-14)">
  <metadata
     id="metadata139">
    <rdf:RDF>
      <cc:Work
         rdf:about="">
        <dc:format>image/svg+xml</dc:format>
        <dc:type
           rdf:resource="http://purl.org/dc/dcmitype/StillImage" />
        <dc:title>deliveries</dc:title>
      </cc:Work>
    </rdf:RDF>
  </metadata>
  <defs
     id="defs137" />
  <sodipodi:namedview
     pagecolor="#ffffff"
     bordercolor="#666666"
     borderopacity="1"
     objecttolerance="10"
     gridtolerance="10"
     guidetolerance="10"
     inkscape:pageopacity="0"
     inkscape:pageshadow="2"
     inkscape:window-width="1554"
     inkscape:window-height="836"
     id="namedview135"
     showgrid="false"
     inkscape:zoom="0.33539401"
     inkscape:cx="-151.34425"
     inkscape:cy="459.16147"
     inkscape:window-x="46"
     inkscape:window-y="27"
     inkscape:window-maximized="1"
     inkscape:current-layer="g1651" />
  <title
     id="title2">deliveries</title>
  <ellipse
     cx="455.5"
     cy="682.65"
     rx="455.5"
     ry="21"
     id="ellipse6"
     fill="#3f3d56" />
  <path
     d="M948.7,773c3-5.51-.4-12.26-4.28-17.18s-8.61-10-8.51-16.29c.14-9,9.69-14.31,17.33-19.08a84.8,84.8,0,0,0,15.55-12.51,22.79,22.79,0,0,0,4.79-6.4c1.57-3.52,1.53-7.52,1.43-11.38q-.5-19.26-1.9-38.48"
     stroke-miterlimit="10"
     id="path8"
     stroke-width="4"
     stroke="#3f3d56"
     fill="none"
     transform="translate(-125.21 -98.18)" />
  <path
     d="M987.62,651a14.06,14.06,0,0,0-7-11.5l-3.14,6.22.09-7.52a14,14,0,0,0-18,14.12,14,14,0,0,0,28-1.32Z"
     id="path10"
     fill="#57b793"
     transform="translate(-125.21 -98.18)" />
  <path
     d="M962.59,746a14,14,0,1,1,.67-11.3l-8.76,7.13,9.64-2.24A14,14,0,0,1,962.59,746Z"
     id="path12"
     fill="#57b793"
     transform="translate(-125.21 -98.18)" />
  <path
     d="M955.66,718.71A14,14,0,0,1,941,705.34a13.8,13.8,0,0,1,1.21-6.39,14.06,14.06,0,0,1,9-7.78l-.07,5.79,3.18-6.3h0a14,14,0,0,1,1.31,28.05Z"
     id="path14"
     fill="#57b793"
     transform="translate(-125.21 -98.18)" />
  <path
     d="M989.73,696a14,14,0,0,1-1.32-28,13.9,13.9,0,0,1,7.52,1.78l-2.48,6.8,5.1-4.9a14,14,0,0,1,4.54,9.69,13.69,13.69,0,0,1-.36,3.86A14,14,0,0,1,989.73,696Z"
     id="path16"
     fill="#57b793"
     transform="translate(-125.21 -98.18)" />
  <path
     d="M985.73,654.7c-3.24.36-6.39,1.37-9.64,1.57s-6.82-.58-8.88-3.11c-1.11-1.36-1.66-3.08-2.6-4.56a10,10,0,0,0-3.53-3.33,14,14,0,1,0,26.24,9.32C986.78,654.61,986.25,654.65,985.73,654.7Z"
     id="path18"
     opacity="0.1"
     transform="translate(-125.21 -98.18)" />
  <path
     d="M989.73,696a14,14,0,0,1-13.35-20,10.4,10.4,0,0,1,2.82,2.83c1,1.51,1.6,3.25,2.78,4.64,2.18,2.57,5.92,3.41,9.31,3.25s6.65-1.11,10-1.42c.46,0,.94-.08,1.41-.09A14,14,0,0,1,989.73,696Z"
     id="path20"
     opacity="0.1"
     transform="translate(-125.21 -98.18)" />
  <path
     d="M955.66,718.71A14,14,0,0,1,941,705.34a13.8,13.8,0,0,1,1.21-6.39,11.52,11.52,0,0,1,3,2.85c1.09,1.54,1.77,3.31,3,4.73,2.37,2.64,6.35,3.57,9.94,3.48s6.82-.93,10.28-1.19A14.06,14.06,0,0,1,955.66,718.71Z"
     id="path22"
     opacity="0.1"
     transform="translate(-125.21 -98.18)" />
  <path
     d="M962.59,746A14,14,0,0,1,937,734.5a14.56,14.56,0,0,1,3.08,2.75c1.33,1.63,2.21,3.47,3.76,5,2.87,2.81,7.5,4,11.62,4.08A60.15,60.15,0,0,0,962.59,746Z"
     id="path24"
     opacity="0.1"
     transform="translate(-125.21 -98.18)" />
  <path
     d="M927.54,766.65s11.07-.34,14.41-2.72,17-5.22,17.87-1.4,16.65,19,4.14,19.06-29.06-2-32.39-4S927.54,766.65,927.54,766.65Z"
     id="path26"
     fill="#656380"
     transform="translate(-125.21 -98.18)" />
  <path
     d="M964.18,780.26c-12.5.1-29.06-2-32.39-4-2.53-1.54-3.55-7.09-3.88-9.65l-.37,0s.7,8.93,4,11,19.88,4.08,32.39,4c3.61,0,4.86-1.32,4.79-3.22C968.25,779.52,966.87,780.24,964.18,780.26Z"
     id="path28"
     opacity="0.2"
     transform="translate(-125.21 -98.18)" />
  <path
     d="M319.62,742.15c-7.26-13.44,1-29.9,10.44-41.88s21-24.44,20.75-39.71c-.36-21.94-23.64-34.89-42.24-46.52a206.29,206.29,0,0,1-37.93-30.49c-4.57-4.67-9-9.65-11.66-15.61-3.84-8.58-3.74-18.33-3.49-27.73q1.2-47,4.64-93.82"
     stroke-miterlimit="10"
     id="path30"
     stroke-width="4"
     stroke="#3f3d56"
     fill="none"
     transform="translate(-125.21 -98.18)" />
  <path
     d="M224.76,444.68a34.21,34.21,0,0,1,17.08-28l7.66,15.15-.23-18.34a34.22,34.22,0,1,1-24.51,31.22Z"
     id="path32"
     fill="#57b793"
     transform="translate(-125.21 -98.18)" />
  <path
     d="M285.78,676.24a34.2,34.2,0,0,0,64.59-14,33.76,33.76,0,0,0-2.23-13.88,34.22,34.22,0,0,0-64,.37l21.37,17.38L282,660.64A33.83,33.83,0,0,0,285.78,676.24Z"
     id="path34"
     fill="#57b793"
     transform="translate(-125.21 -98.18)" />
  <path
     d="M302.67,609.82a34.22,34.22,0,0,0,10.85-67.12l.18,14.09L306,541.46h-.09a34.22,34.22,0,0,0-3.19,68.37Z"
     id="path36"
     fill="#57b793"
     transform="translate(-125.21 -98.18)" />
  <path
     d="M219.61,554.55a34.22,34.22,0,1,0-15.12-64l6,16.57L198.1,495.15A34.06,34.06,0,0,0,187,518.77a33.37,33.37,0,0,0,.87,9.42A34.21,34.21,0,0,0,219.61,554.55Z"
     id="path38"
     fill="#57b793"
     transform="translate(-125.21 -98.18)" />
  <path
     d="M229.36,453.8c7.9.87,15.58,3.32,23.5,3.81s16.63-1.4,21.64-7.56c2.7-3.32,4.05-7.52,6.33-11.14a24.28,24.28,0,0,1,8.62-8.11,34.22,34.22,0,1,1-64,22.71C226.78,453.57,228.08,453.66,229.36,453.8Z"
     id="path40"
     opacity="0.1"
     transform="translate(-125.21 -98.18)" />
  <path
     d="M219.61,554.55a34.24,34.24,0,0,0,32.55-48.8,25.31,25.31,0,0,0-6.88,6.88c-2.44,3.68-3.91,7.93-6.78,11.31-5.33,6.26-14.43,8.31-22.69,7.94s-16.23-2.73-24.45-3.48c-1.14-.1-2.3-.18-3.45-.21A34.21,34.21,0,0,0,219.61,554.55Z"
     id="path42"
     opacity="0.1"
     transform="translate(-125.21 -98.18)" />
  <path
     d="M302.67,609.82a34.21,34.21,0,0,0,32.82-48.17,27.67,27.67,0,0,0-7.23,7c-2.66,3.75-4.32,8.07-7.43,11.53-5.77,6.43-15.47,8.7-24.22,8.49-8.47-.18-16.63-2.26-25.05-2.91A34.24,34.24,0,0,0,302.67,609.82Z"
     id="path44"
     opacity="0.1"
     transform="translate(-125.21 -98.18)" />
  <path
     d="M285.78,676.24a34.2,34.2,0,0,0,64.59-14,33.76,33.76,0,0,0-2.23-13.88,34.26,34.26,0,0,0-7.5,6.69c-3.25,4-5.4,8.46-9.16,12.16-7,6.86-18.29,9.7-28.34,10A146.77,146.77,0,0,1,285.78,676.24Z"
     id="path46"
     opacity="0.1"
     transform="translate(-125.21 -98.18)" />
  <polygon
     points="431.22 663.95 299.22 690.95 296.22 690.65 180.22 678.95 180.22 531.95 322.22 507.95 425.22 519.95 425.25 520.6 425.26 520.92 431.22 663.95"
     id="polygon48"
     fill="#755b20" />
  <polygon
     points="431.22 663.95 299.22 690.95 296.22 690.65 296.22 539.95 425.25 520.6 431.22 663.95"
     id="polygon50"
     opacity="0.1" />
  <polygon
     points="425.26 520.92 425.22 520.95 296.22 539.95 180.22 531.95 322.22 507.95 425.22 519.95 425.25 520.6 425.26 520.92"
     id="polygon52"
     opacity="0.05" />
  <polygon
     points="576.22 669.95 444.22 696.95 441.22 696.65 325.22 684.95 325.22 537.95 467.22 513.95 570.22 525.95 570.25 526.6 570.26 526.92 576.22 669.95"
     id="polygon54"
     fill="#3f3d56" />
  <polygon
     points="576.22 669.95 444.22 696.95 441.22 696.65 441.22 545.95 570.25 526.6 576.22 669.95"
     id="polygon56"
     opacity="0.1" />
  <polygon
     points="570.26 526.92 570.22 526.95 441.22 545.95 325.22 537.95 467.22 513.95 570.22 525.95 570.25 526.6 570.26 526.92"
     id="polygon58"
     opacity="0.05" />
  <polygon
     points="485.22 525.95 353.22 552.95 350.22 552.65 234.22 540.95 234.22 393.95 376.22 369.95 479.22 381.95 479.25 382.6 479.26 382.92 485.22 525.95"
     id="polygon60"
     fill="#3f3d56" />
  <polygon
     points="485.22 525.95 353.22 552.95 350.22 552.65 350.22 401.95 479.25 382.6 485.22 525.95"
     id="polygon62"
     opacity="0.1" />
  <polygon
     points="479.26 382.92 479.22 382.95 350.22 401.95 234.22 393.95 376.22 369.95 479.22 381.95 479.25 382.6 479.26 382.92"
     id="polygon64"
     opacity="0.05" />
  <polygon
     points="560.22 532.11 491.33 546.21 489.76 546.05 429.22 539.94 429.22 463.22 503.33 450.69 557.09 456.96 557.11 457.3 557.11 457.46 560.22 532.11"
     id="polygon66"
     fill="#3f3d56" />
  <polygon
     points="560.22 532.11 491.33 546.21 489.76 546.05 489.76 467.4 557.11 457.3 560.22 532.11"
     id="polygon68"
     opacity="0.1" />
  <polygon
     points="557.11 457.46 557.09 457.48 489.76 467.4 429.22 463.22 503.33 450.69 557.09 456.96 557.11 457.3 557.11 457.46"
     id="polygon70"
     opacity="0.05" />
  <polygon
     points="375.22 383.11 306.33 397.2 304.76 397.05 244.22 390.94 244.22 314.22 318.33 301.69 372.09 307.96 372.11 308.3 372.11 308.46 375.22 383.11"
     id="polygon72"
     fill="#3f3d56" />
  <polygon
     points="375.22 383.11 306.33 397.2 304.76 397.05 304.76 318.4 372.11 308.3 375.22 383.11"
     id="polygon74"
     opacity="0.1" />
  <polygon
     points="372.11 308.46 372.09 308.48 304.76 318.4 244.22 314.22 318.33 301.69 372.09 307.96 372.11 308.3 372.11 308.46"
     id="polygon76"
     opacity="0.05" />
  <polygon
     points="496.22 380.11 427.33 394.2 425.76 394.05 365.22 387.94 365.22 311.22 439.33 298.69 493.09 304.96 493.11 305.3 493.11 305.46 496.22 380.11"
     id="polygon78"
     fill="#755b20" />
  <polygon
     points="496.22 380.11 427.33 394.2 425.76 394.05 425.76 315.4 493.11 305.3 496.22 380.11"
     id="polygon80"
     opacity="0.1" />
  <polygon
     points="493.11 305.46 493.09 305.48 425.76 315.4 365.22 311.22 439.33 298.69 493.09 304.96 493.11 305.3 493.11 305.46"
     id="polygon82"
     opacity="0.05" />
  <polygon
     points="532.22 303.11 463.33 317.2 461.76 317.05 401.22 310.94 401.22 234.22 475.33 221.69 529.09 227.96 529.11 228.3 529.11 228.46 532.22 303.11"
     id="polygon84"
     fill="#3f3d56" />
  <polygon
     points="532.22 303.11 463.33 317.2 461.76 317.05 461.76 238.4 529.11 228.3 532.22 303.11"
     id="polygon86"
     opacity="0.1" />
  <polygon
     points="529.11 228.46 529.09 228.48 461.76 238.4 401.22 234.22 475.33 221.69 529.09 227.96 529.11 228.3 529.11 228.46"
     id="polygon88"
     opacity="0.05" />
  <path
     d="M704.35,244.45c-.73,6.5-5.69,11.74-7.53,18-2.76,9.45,2,19.6,8.56,27A59.77,59.77,0,0,0,747,309.19a17.91,17.91,0,0,0,6.88-.75,14.94,14.94,0,0,0,5.23-3.58c4.92-4.95,7.57-11.8,8.62-18.71s.65-13.94.24-20.91a11.83,11.83,0,0,0-.78-4.22,10.72,10.72,0,0,0-2.71-3.33,63,63,0,0,0-11.65-8.47c-1.8-1-3.73-2-4.88-3.73a12.21,12.21,0,0,1-1.51-4.47l-1.29-6.56a12.86,12.86,0,0,0-1.89-5.32c-2.27-3.06-6.62-3.48-10.43-3.63l-14-.55c-4.35-.17-10.07-1.42-14.32-.56-4,.79-2.65,4.45-1.93,7.77A56.18,56.18,0,0,1,704.35,244.45Z"
     id="path90"
     fill="#ffc0c6"
     transform="translate(-125.21 -98.18)" />
  <path
     d="M704.35,244.45c-.73,6.5-5.69,11.74-7.53,18-2.76,9.45,2,19.6,8.56,27A59.77,59.77,0,0,0,747,309.19a17.91,17.91,0,0,0,6.88-.75,14.94,14.94,0,0,0,5.23-3.58c4.92-4.95,7.57-11.8,8.62-18.71s.65-13.94.24-20.91a11.83,11.83,0,0,0-.78-4.22,10.72,10.72,0,0,0-2.71-3.33,63,63,0,0,0-11.65-8.47c-1.8-1-3.73-2-4.88-3.73a12.21,12.21,0,0,1-1.51-4.47l-1.29-6.56a12.86,12.86,0,0,0-1.89-5.32c-2.27-3.06-6.62-3.48-10.43-3.63l-14-.55c-4.35-.17-10.07-1.42-14.32-.56-4,.79-2.65,4.45-1.93,7.77A56.18,56.18,0,0,1,704.35,244.45Z"
     id="path92"
     opacity="0.1"
     transform="translate(-125.21 -98.18)" />
  <path
     d="M793.26,537.21l-5.94,65.12c-1.55,17.08-3.13,34.23-6.17,51.09-1,5.81-2.28,11.59-3.74,17.32-4.06,15.91-9.95,31.46-11.85,47.77-.06.47-.11,1-.16,1.43-.39,3.6-.73,7.24-2,10.6-1,2.49-2.41,4.76-3.44,7.22-2,4.92-2.32,10.36-2.57,15.69a67.64,67.64,0,0,0-23.29-8c-4-.59-8.35-1-11-4-3-3.26-2.65-8.25-2.15-12.63q2.36-20.4,4.7-40.78a106.28,106.28,0,0,1,3-17.32c.54-1.89,1.19-3.75,1.85-5.61.91-2.56,1.83-5.12,2.52-7.75A93.33,93.33,0,0,0,735,644.53c1.61-13.68,3.55-27.33,5.25-41l.09-.72c2.55-20.72,4.49-41.54,3.93-62.41-.08-3.09-.21-6.18-.41-9.28-.28-4.49-.69-6.87,3-9.68,4.11-3.1,9.52-5.27,14.22-7.3,2.53-1.1,30.39-11,31-8.82a54.29,54.29,0,0,1,2,14.22A158.22,158.22,0,0,1,793.26,537.21Z"
     id="path94"
     fill="#605d82"
     transform="translate(-125.21 -98.18)" />
  <path
     d="M781.15,653.42c-1,5.81-2.28,11.59-3.74,17.32-4.06,15.91-9.95,31.46-11.85,47.77-.06.47-.11,1-.16,1.43-12.42-17.74-22.88-36.82-35-54.75.91-2.56,1.83-5.12,2.52-7.75A93.33,93.33,0,0,0,735,644.53c1.61-13.68,3.55-27.33,5.25-41l.09-.72a42.47,42.47,0,0,0,3,8.41c8.14,16.54,27.48,24.9,36.94,40.73Q780.75,652.69,781.15,653.42Z"
     id="path96"
     opacity="0.1"
     transform="translate(-125.21 -98.18)" />
  <path
     d="M680.37,508c.41,13.26,2.53,26.41,4.65,39.51l4.37,27c2.39,14.8,4.89,29.89,11.89,43.14,5.24,9.92,12.78,18.38,19.61,27.27,16.78,21.86,29.39,46.63,45.3,69.13,4.63,6.54,11.24,13.62,19.13,12.25,5.18-.89,8.94-5.21,13-8.53,4.8-3.92,10.58-6.79,14.36-11.71s4.52-13.08-.6-16.58c-1.75-1.19-3.88-1.64-5.86-2.4-7.93-3-13.07-10.76-16.33-18.6s-5.25-16.25-9.6-23.54c-9.46-15.83-28.81-24.19-36.95-40.74-4.56-9.26-5-20-5.34-30.27l-.89-26.31c-.1-2.88-.17-5.87,1-8.5,3.11-7,12.51-7.66,20.13-8.55a68.75,68.75,0,0,0,24.67-7.78c4.39-2.37,8.67-5.39,11-9.79,2.14-4,2.43-8.71,2.68-13.25l2.64-47.69c.23-4.1.43-8.35-1-12.19-3.63-9.66-15.83-12.82-26.14-12.36-19.18.86-36.88,9.11-55,14.69-4.49,1.38-9,2.62-13.63,3.55-4,.81-9,.48-12.84,1.78-6.88,2.32-6.71,17.38-7.68,23.62A198.29,198.29,0,0,0,680.37,508Z"
     id="path98"
     fill="#605d82"
     transform="translate(-125.21 -98.18)" />
  <path
     d="M782.72,728.32c1.69,1.71,2.24,4.21,2.68,6.57a224.15,224.15,0,0,1,3.8,39.71,6.58,6.58,0,0,0,.71,3.6,4.59,4.59,0,0,0,1.87,1.5c4.89,2.33,10.56-.92,14.64-4.49,7.55-6.61,13.94-15.49,14.37-25.52.11-2.58-.18-5.19.27-7.74.66-3.78,2.87-7.07,4.81-10.37a88.05,88.05,0,0,0,8-17.82c.74-2.34,1.24-5.28-.6-6.91a6.43,6.43,0,0,0-2.17-1.13L809,697.52c-1.92-.71-6.68,11.52-7.43,12.86-1.85,3.27-3.69,5.12-7.4,5.88s-8.29-.34-11.83,1.55C776.34,721,779.33,724.91,782.72,728.32Z"
     id="path100"
     fill="#535070"
     transform="translate(-125.21 -98.18)" />
  <path
     d="M748.64,735.87a6.73,6.73,0,0,0-1.68-2.13,7.53,7.53,0,0,0-3.39-1.15c-4.2-.72-9.18-1.19-12.09,1.94-2.72,2.93-2.25,7.7-4.52,11-.72,1-1.7,1.9-2.32,3a11.26,11.26,0,0,0-1,5.38c-.12,5.09-.24,10.2.12,15.28.29,4.26,1,8.73,3.67,12.07,4.28,5.36,12,6.13,18.84,6.47l5.55.29a11,11,0,0,0,4.54-.42,7.45,7.45,0,0,0,3.92-4.31c2.89-7.18-1.68-14.91-4.5-22.11C752.53,752.89,753.11,743.7,748.64,735.87Z"
     id="path102"
     fill="#535070"
     transform="translate(-125.21 -98.18)" />
  <path
     d="M702.75,207.8a4.53,4.53,0,0,1,.31-2.14c.81-1.43,2.93-1,4.53-.64,6.43,1.62,13.21.15,19.84.53s14.09,3.69,15.42,10.19a48.21,48.21,0,0,0,12.23-12.56c1.84-2.75,3.44-5.9,3.19-9.2-.36-4.76-4.35-8.32-8-11.34l-11-9a16.71,16.71,0,0,0-4.94-3.14c-2.54-.87-5.32-.45-8-.45-8,0-16.58-3.65-23.71,0-3,1.53-5.23,4.16-7.39,6.72l-9.83,11.64a6.21,6.21,0,0,0-1.58,2.67c-.28,1.42.45,2.82.71,4.25.46,2.6-.66,5.38.2,7.88,1.43,4.14,6.47,4.73,9.55,7.11,1.14.88,2.94,3.89,4.31,3.85C701,214.12,702.68,209.72,702.75,207.8Z"
     id="path104"
     fill="#3f3d56"
     transform="translate(-125.21 -98.18)" />
  <circle
     cx="594.22"
     cy="112.45"
     r="31.5"
     id="circle106"
     fill="#ffc0c6" />
  <path
     d="M726.81,279.56A15.26,15.26,0,0,0,712,269.34a4.45,4.45,0,0,1-2.74-.35,3.79,3.79,0,0,1-1.13-1.4,55.73,55.73,0,0,1-4.59-10.86c-.5-1.67-1.19-3.64-2.88-4.07-1.36-.35-2.75.53-3.66,1.6a35,35,0,0,1-2.62,3.29c-4,3.54-11,.31-15.19,3.56-.69.53-1.26,1.21-2,1.7a9.1,9.1,0,0,1-2.31,1A221.38,221.38,0,0,0,651,273.14c2.8,16.84,5.66,34,12.22,49.75,3.12,7.5,6.65,14.85,9.15,22.58,5.54,17.13,5.78,35.46,5.85,53.47,0,12.32,0,24.9-4,36.56-.9,2.64-2,5.26-2.25,8s.57,5.84,2.82,7.48a9.51,9.51,0,0,0,4.35,1.53c6.91,1,13.87-.82,20.67-2.4,18.23-4.22,36.83-6.64,55.38-9l31.1-4a18.19,18.19,0,0,0,6.44-1.67c5.69-3.11,6.23-11.67,2.69-17.11-1.69-2.61-4.08-4.75-5.51-7.51s-1.54-6.64.91-8.55c5-3.9,3.5-11.13,3.74-17.45q1-26.52-.27-53a103.72,103.72,0,0,1-.18-11c.35-6.22,1.89-12.31,3.43-18.36l9.45-37.2c-2.47-3.9-7.2-6.38-11.67-7.5s-9.14-1.45-13.55-2.82c-9-2.8-17.08-9.9-26.51-9.24a4.85,4.85,0,0,0-2.06.5c-2.12,1.21-1.79,4.27-1.92,6.71-.3,5.41-4.28,9.92-8.66,13.09s-9.4,5.47-13.43,9.08A6,6,0,0,0,726.81,279.56Z"
     id="path108"
     fill="#3f3d56"
     transform="translate(-125.21 -98.18)" />
  <path
     d="M602,314.85a37,37,0,0,1-6.62,3.41c-2.2.87-4.55,1.56-6.35,3.08a10.05,10.05,0,0,0-2.21,2.73A12.13,12.13,0,0,0,598,342.14c2.89-.15,5.62-1.32,8.27-2.47L628.49,330c3.76-1.63,7.82-3.53,9.6-7.23a1.74,1.74,0,0,0,.22-1.15,1.89,1.89,0,0,0-.92-1,49.77,49.77,0,0,1-12.93-12.2c-.91-1.24-2-4.16-3.32-4.91C616.44,300.9,605.77,312.41,602,314.85Z"
     id="path110"
     fill="#ffc0c6"
     transform="translate(-125.21 -98.18)" />
  <path
     d="M839.52,307l8.19,9.36c1.76,2,3.52,4,5.12,6.16a71.67,71.67,0,0,1,9.38,17.67c1.78,4.67,3.26,9.65,2.64,14.61a36,36,0,0,1-2.05,7.43,91.86,91.86,0,0,1-5.57,13.4A76.26,76.26,0,0,1,851,385a219.1,219.1,0,0,1-20.77,23.75c-2.8,2.77-4,7.26-5.19,11-2.25,6.91-7.6,12.3-12.77,17.4a35.19,35.19,0,0,1-5.49,4.72,17.8,17.8,0,0,1-10,2.84,11,11,0,0,1-4.49-.93c-3.54-1.68-5.34-5.77-5.71-9.67a20.7,20.7,0,0,1,1.72-10.36c4.7-10.41,16.77-14.92,25.3-22.52,5-4.45,8.83-10.05,12.61-15.58a54.05,54.05,0,0,0,6.37-11.17c1.9-5.09,1.16-11.11,2.83-16.27.7-2.19,2-4.16,2.71-6.33s.95-4.74-.38-6.61a9.55,9.55,0,0,0-3.71-2.72c-5.45-2.76-11.55-6.32-12.59-12.35a13.22,13.22,0,0,1,2.44-9.43,39,39,0,0,1,6.87-7.2C833.12,311.43,837.13,309.06,839.52,307Z"
     id="path112"
     fill="#ffc0c6"
     transform="translate(-125.21 -98.18)" />
  <path
     d="M596.74,327.91c-1.44-2.92-3.25-5.9-6.17-7.35a11.36,11.36,0,0,0-9,0,34.12,34.12,0,0,0-7.88,4.76l-7.06,5.21a17.37,17.37,0,0,0-4.19,3.87,16.11,16.11,0,0,0-2.18,6c-1,4.87-1.81,9.88-1.11,14.81,1.12,8,5.92,14.92,11.2,21,3.3,3.78,7.38,7.6,12.4,7.77,2.17.07,4.58-.79,5.48-2.76a6.83,6.83,0,0,0,.49-2.46c.54-8.88-2.64-17.55-6.34-25.64-1-2.2-2.08-4.48-2-6.89a1.86,1.86,0,0,1,.3-1.16,1.94,1.94,0,0,1,1.2-.59c5.07-1,13.81,2.94,17.36-2.69C601.54,338.07,598.38,331.22,596.74,327.91Z"
     id="path114"
     fill="#ffc0c6"
     transform="translate(-125.21 -98.18)" />
  <path
     d="M701.09,197.89a4.66,4.66,0,0,1,.32-2.14c.81-1.44,2.93-1,4.53-.64,6.43,1.62,13.21.15,19.84.53s14.08,3.69,15.42,10.19a48.53,48.53,0,0,0,12.23-12.56c1.84-2.76,3.44-5.91,3.19-9.21-.36-4.76-4.36-8.32-8-11.33l-11-9a16.66,16.66,0,0,0-4.93-3.14c-2.55-.87-5.32-.45-8-.45-8,0-16.58-3.65-23.71,0-3,1.53-5.23,4.16-7.39,6.72l-9.84,11.64a6.23,6.23,0,0,0-1.57,2.67c-.28,1.42.45,2.82.71,4.25.46,2.6-.66,5.38.2,7.87,1.43,4.15,6.47,4.74,9.55,7.12,1.14.88,2.94,3.89,4.31,3.85C699.32,204.21,701,199.81,701.09,197.89Z"
     id="path116"
     fill="#3f3d56"
     transform="translate(-125.21 -98.18)" />
  <path
     d="M634.19,284.21a13.06,13.06,0,0,0-3.3,3.07c-1.15,1.75-1.39,4-2.38,5.8-2.12,3.94-7.09,5.35-10.18,8.58a3.19,3.19,0,0,0-1,1.68,3.71,3.71,0,0,0,.83,2.42l14.94,23.48c5,.44,9.74-2.68,14.72-2.26,1.85.15,3.76.79,5.54.24a16.1,16.1,0,0,0,3.55-2.17c3-1.88,6.92-2.1,9.41-4.57s2.7-6.1,2.67-9.47a37.37,37.37,0,0,0-.89-8.7c-2.2-9-9.09-15.94-13.41-23.92-2.11-3.89-3.25-6.16-7.7-3.49S638.4,281.13,634.19,284.21Z"
     id="path118"
     fill="#3f3d56"
     transform="translate(-125.21 -98.18)" />
  <path
     d="M815.6,272.34a35.07,35.07,0,0,1,7.52,6.58c2.27,2.93,3.56,6.53,5.75,9.53s5,5.16,7.4,7.84c3.65,4.06,6.12,9,8.54,13.91A208.6,208.6,0,0,1,825.49,332a6.19,6.19,0,0,1-2.94,1.92,4.71,4.71,0,0,1-4.14-1.69c-1.08-1.12-1.84-2.52-2.87-3.69a14.75,14.75,0,0,0-9.13-4.41,62.72,62.72,0,0,0-10.35-.15,4,4,0,0,1-2.21-.37,3.65,3.65,0,0,1-1.2-1.38c-4-6.88-2.75-15.52-1.32-23.38l3.27-18a40.44,40.44,0,0,1,2.73-10c1.24-2.65,4-7.15,7.42-6.35S812.71,270.26,815.6,272.34Z"
     id="path120"
     fill="#3f3d56"
     transform="translate(-125.21 -98.18)" />
  <polygon
     points="405.22 306.11 336.33 320.2 334.76 320.05 274.22 313.94 274.22 237.22 348.33 224.69 402.09 230.96 402.11 231.3 402.11 231.46 405.22 306.11"
     id="polygon122"
     fill="#755b20" />
  <polygon
     points="405.22 306.11 336.33 320.2 334.76 320.05 334.76 241.4 402.11 231.3 405.22 306.11"
     id="polygon124"
     opacity="0.1" />
  <polygon
     points="402.11 231.46 402.09 231.48 334.76 241.4 274.22 237.22 348.33 224.69 402.09 230.96 402.11 231.3 402.11 231.46"
     id="polygon126"
     opacity="0.05" />
  <polygon
     points="441.22 230.11 372.33 244.21 370.76 244.05 310.22 237.94 310.22 161.22 384.33 148.69 438.09 154.96 438.11 155.3 438.11 155.46 441.22 230.11"
     id="polygon128"
     fill="#3f3d56" />
  <polygon
     points="441.22 230.11 372.33 244.21 370.76 244.05 370.76 165.4 438.11 155.3 441.22 230.11"
     id="polygon130"
     opacity="0.1" />
  <polygon
     points="438.11 155.46 438.09 155.48 370.76 165.4 310.22 161.22 384.33 148.69 438.09 154.96 438.11 155.3 438.11 155.46"
     id="polygon132"
     opacity="0.05" />
  <path
     style="fill:#ffffff;fill-opacity:1;stroke-width:2.98156786"
     d="m 393.83544,390.31647 -27.57951,-2.93351 v -36.86101 c 0,-40.11873 0.50199,-39.16983 -17.90909,-33.8532 -7.12788,2.05834 -20.29821,1.95997 -41.72227,-0.31165 -17.21855,-1.82569 -31.30646,-3.51463 -31.30646,-3.75319 0,-0.23857 0.67085,-17.17798 1.49079,-37.64314 l 1.49078,-37.20939 14.63972,-2.44549 c 8.87494,-1.48251 15.33234,-1.32619 16.39863,0.39698 0.96739,1.56336 15.03348,4.42699 31.25797,6.36362 26.40787,3.15217 40.7477,2.71452 55.87941,-1.70543 4.24521,-1.24002 5.04885,2.73497 6.21082,30.72004 0.75233,18.11897 0.0916,33.77052 -1.51427,35.87132 -1.56691,2.04982 -2.34922,3.86662 -1.73847,4.03732 12.09962,3.38176 66.67768,6.74739 76.60562,4.72398 7.08522,-1.44403 13.5986,-1.90914 14.47418,-1.03356 0.87557,0.87557 2.31149,15.69021 3.19092,32.92142 1.59005,31.15464 1.55919,31.33882 -5.52947,33.00651 -13.99055,3.29143 -65.93306,13.54684 -66.34262,13.09854 -0.22945,-0.25116 -12.82796,-1.77673 -27.99668,-3.39016 z"
     id="path145"
     inkscape:connector-curvature="0" />
  <path
     style="fill:#ffffff;fill-opacity:1;stroke-width:2.98156786"
     d="m 230.59459,683.28497 c -26.23779,-2.90715 -48.04051,-5.41781 -48.45048,-5.57924 -0.40996,-0.16143 -0.74539,-32.98292 -0.74539,-72.93665 v -72.64315 l 12.67167,-1.73922 c 6.96941,-0.95658 18.26985,-2.63549 25.11208,-3.73093 12.02478,-1.92516 12.47305,-1.70626 13.41705,6.5517 l 0.97664,8.54341 38.76038,3.71344 c 21.31821,2.0424 41.77922,4.41595 45.46891,5.27455 l 6.70853,1.5611 v 66.63836 66.63836 l -11.18088,1.84809 c -15.48322,2.55921 -27.87294,1.9393 -82.73851,-4.13982 z"
     id="path147"
     inkscape:connector-curvature="0" />
  <path
     style="fill:#ffffff;fill-opacity:1;stroke-width:2.98156786"
     d="m 120.27658,359.41329 c -3.27972,-0.69355 -8.98197,-1.90518 -12.67166,-2.6925 -8.088732,-1.72602 -8.976661,-12.13578 -2.15961,-25.3185 5.42958,-10.49965 11.2347,-11.27348 15.66463,-2.08812 3.0517,6.32763 3.24686,6.15834 3.4372,-2.98156 0.19212,-9.22558 0.75401,-9.6901 11.72149,-9.6901 8.38808,0 13.59732,2.07763 19.16229,7.6426 l 7.6426,7.6426 -7.3853,10.9922 c -4.06191,6.04571 -11.00781,12.60881 -15.43533,14.58468 -8.45598,3.77364 -10.31658,3.95141 -19.97631,1.9087 z"
     id="path149"
     inkscape:connector-curvature="0" />
  <path
     style="fill:#ffffff;fill-opacity:1;stroke-width:2.98156786"
     d="m 65.469894,430.29208 c -5.149063,-3.34757 -2.258657,-21.89026 4.254859,-27.296 3.603171,-2.99036 5.572846,-2.67593 10.356588,1.6533 6.641345,6.01033 7.146581,5.08816 3.076877,-5.61597 -2.557639,-6.7271 -1.981919,-7.63068 5.975546,-9.37843 9.89947,-2.17429 28.704356,5.64162 33.812246,14.05345 2.41509,3.97724 1.10413,7.5188 -6.07019,16.39862 -8.69109,10.75715 -10.10793,11.36443 -28.218219,12.09471 -10.48722,0.42289 -20.92169,-0.43647 -23.187707,-1.90968 z"
     id="path153"
     inkscape:connector-curvature="0" />
  <path
     style="fill:#ffffff;fill-opacity:1;stroke-width:2.98156786"
     d="m 159.03696,489.81922 c -10.62792,-1.54751 -12.01457,-2.71031 -12.73736,-10.68126 -1.45516,-16.04752 14.6863,-34.28803 30.34228,-34.28803 2.08982,0 5.61352,3.68969 7.83045,8.19931 3.90622,7.94594 4.06563,7.99201 5.15831,1.49079 1.44003,-8.56784 3.99919,-8.45133 12.47224,0.56782 l 6.83579,7.27636 -6.58254,10.65077 c -9.61294,15.55406 -21.12766,20.0155 -43.31917,16.78424 z"
     id="path155"
     inkscape:connector-curvature="0" />
  <path
     style="fill:#ffffff;fill-opacity:1;stroke-width:2.98156786"
     d="m 625.65234,650.99792 c 0,-10.45144 -3.4519,-15.32764 -10.85056,-15.32764 -4.73994,0 -8.07185,2.27302 -9.67179,6.59806 l -2.44078,6.59806 -3.3882,-6.33091 c -2.56774,-4.79785 -2.35334,-14.17712 0.88537,-38.73265 2.35046,-17.82096 5.13861,-34.65602 6.1959,-37.41125 1.27926,-3.33372 -2.70967,-11.02912 -11.92429,-23.00422 -7.61563,-9.89708 -16.41728,-23.80614 -19.55922,-30.909 -6.76223,-15.28715 -17.82249,-81.00778 -17.82249,-105.90213 0,-23.70461 3.35928,-54.2734 5.79857,-52.76584 1.09148,0.67458 7.27727,-5e-4 13.7462,-1.50017 6.46893,-1.49966 26.9208,-4.8553 45.4486,-7.45697 28.21051,-3.96131 35.14717,-4.09418 42.66941,-0.8173 l 8.9825,3.91301 -1.89695,25.34333 c -4.39375,58.70068 -13.53389,160.03681 -15.02091,166.53591 -3.48158,15.21649 10.272,42.25948 27.18136,53.44539 4.14018,2.73882 4.70007,4.28941 1.9813,5.48712 -2.08433,0.91822 -5.80848,5.57339 -8.27588,10.34482 -2.56923,4.96833 -6.91054,8.67533 -10.15979,8.67533 -3.12048,0 -7.6273,1.95371 -10.01517,4.34157 -3.80105,3.80105 -4.9987,3.61545 -9.61978,-1.49078 -5.22138,-5.76957 -10.96939,-7.91874 -9.61804,-3.59618 0.3845,1.22989 -1.1865,10.01351 -3.4911,19.51913 -4.24386,17.50431 -9.13426,25.23715 -9.13426,14.44331 z M 619.392,460.13808 c 0.2608,-24.52122 -0.25068,-27.48987 -4.17515,-24.23285 -4.85178,4.02662 -6.11288,33.15084 -2.38843,55.159 1.83509,10.84377 2.21107,11.24971 4.14233,4.47235 1.16823,-4.09965 2.25779,-20.02898 2.42125,-35.3985 z"
     id="path159"
     inkscape:connector-curvature="0" />
  <path
     style="fill:#ffffff;fill-opacity:1;stroke-width:2.98156786"
     d="m 666.07615,681.06337 c -0.91488,-0.91489 -1.72232,-9.15462 -1.7943,-18.31052 -0.072,-9.1559 -1.94088,-21.7205 -4.15311,-27.92134 -4.0172,-11.26014 -4.01034,-11.27923 5.48456,-15.24645 5.22875,-2.18471 11.83019,-7.51812 14.66988,-11.85203 l 5.16306,-7.87984 11.7639,6.00149 c 10.99405,5.60875 11.5628,6.53042 8.69098,14.08388 -1.69011,4.44531 -4.54589,9.8572 -6.34619,12.02643 -1.80029,2.16922 -4.35621,10.79469 -5.6798,19.16771 -1.3766,8.70827 -5.11561,18.10733 -8.73647,21.96155 -6.49295,6.91144 -16.10278,10.92885 -19.06251,7.96912 z"
     id="path161"
     inkscape:connector-curvature="0" />
  <path
     style="fill:#ffffff;fill-opacity:1;stroke-width:2.98156786"
     d="m 605.52676,684.80119 c -3.74012,-2.64571 -6.70853,-7.87719 -6.70853,-11.82301 0,-4.96905 -1.99852,-7.46241 -6.70853,-8.3696 l -6.70853,-1.29212 6.70853,-0.40604 c 4.58547,-0.27753 6.70853,-2.29319 6.70853,-6.36917 0,-3.27972 1.3417,-5.96313 2.98157,-5.96313 1.63986,0 2.98156,-1.96536 2.98156,-4.36745 0,-5.11458 8.78751,-10.32552 14.16245,-8.39825 2.04983,0.73499 3.72696,3.29055 3.72696,5.67902 0,2.38847 2.76269,9.75799 6.13932,16.37672 3.37662,6.61873 5.72461,15.62179 5.21774,20.00681 -0.78025,6.75014 -2.52183,8.10302 -11.35706,8.82225 -6.01065,0.48929 -13.28002,-1.16269 -17.14401,-3.89603 z"
     id="path163"
     inkscape:connector-curvature="0" />
  <g
     id="g1651"
     transform="translate(-1113.0342,-22.626322)">
    <path
       id="path1530"
       d="m 1815.1791,357.13968 a 1.7385526,1.7214689 0 0 0 -1.7406,1.71548 l -0.4275,183.9802 a 1.7385562,1.7214725 0 0 0 1.7325,1.7234 l 149.6864,0.34107 a 1.7385562,1.7214725 0 0 0 1.7406,-1.71549 l 0.4275,-183.98019 a 1.7385526,1.7214689 0 0 0 -1.7325,-1.7234 z"
       inkscape:connector-curvature="0"
       style="fill:#e6e6e6;stroke-width:0.36221957" />
    <path
       id="path1532"
       d="m 1820.7229,362.65454 a 1.7385562,1.7214725 0 0 0 -1.7404,1.71549 l -0.4021,172.97577 a 1.7385489,1.7214653 0 0 0 1.7325,1.7234 l 138.5732,0.31574 a 1.7385526,1.7214689 0 0 0 1.7404,-1.71546 l 0.4021,-172.97578 a 1.7385526,1.7214689 0 0 0 -1.7326,-1.7234 z"
       inkscape:connector-curvature="0"
       style="fill:#ffffff;stroke-width:0.36221957" />
    <path
       id="path1534"
       d="m 1940.8888,437.76742 -102.1064,-0.23266 a 2.6047638,2.5791685 0 1 1 0.013,-5.15832 l 102.1065,0.23266 a 2.6047638,2.5791685 0 0 1 -0.013,5.15832 z"
       inkscape:connector-curvature="0"
       style="fill:#e6e6e6;stroke-width:0.36221957" />
    <path
       id="path1536"
       d="m 1941.8772,389.71105 -67.7406,-0.15435 c -0.9543,-0.002 -1.7253,-1.15868 -1.7221,-2.5831 0,-1.42442 0.7798,-2.5774 1.7341,-2.57522 l 67.7406,0.15435 c 0.9544,0.002 1.7253,1.15868 1.722,2.5831 0,1.42441 -0.7796,2.57738 -1.734,2.57522 z"
       inkscape:connector-curvature="0"
       style="fill:#e6e6e6;stroke-width:0.36221957" />
    <path
       id="path1538"
       d="m 1941.8428,404.49823 -67.7405,-0.15435 c -0.9544,-0.002 -1.7255,-1.15869 -1.7222,-2.5831 0,-1.42442 0.7798,-2.5774 1.7342,-2.57522 l 67.7404,0.15435 c 0.9546,0.002 1.7255,1.15868 1.7221,2.5831 0,1.42441 -0.7795,2.5774 -1.734,2.57522 z"
       inkscape:connector-curvature="0"
       style="fill:#e6e6e6;stroke-width:0.36221957" />
    <path
       id="path1540"
       d="m 1940.85,454.44599 -102.1065,-0.23265 a 2.6047638,2.5791685 0 0 1 0.013,-5.15832 l 102.1065,0.23265 a 2.6047638,2.5791685 0 0 1 -0.013,5.15832 z"
       inkscape:connector-curvature="0"
       style="fill:#e6e6e6;stroke-width:0.36221957" />
    <path
       id="path1542"
       d="m 1940.8113,471.12458 -102.1065,-0.23266 a 2.6047638,2.5791685 0 1 1 0.013,-5.15832 l 102.1065,0.23265 a 2.6047684,2.5791731 0 1 1 -0.013,5.15833 z"
       inkscape:connector-curvature="0"
       style="fill:#e6e6e6;stroke-width:0.36221957" />
    <path
       id="path1544"
       d="m 1940.7725,487.80315 -102.1064,-0.23265 a 2.6047685,2.5791731 0 1 1 0.013,-5.15833 l 102.1065,0.23266 a 2.6047638,2.5791685 0 0 1 -0.013,5.15832 z"
       inkscape:connector-curvature="0"
       style="fill:#e6e6e6;stroke-width:0.36221957" />
    <path
       id="path1546"
       d="m 1940.7337,504.48174 -102.1065,-0.23266 a 2.6047638,2.5791685 0 0 1 0.013,-5.15832 l 102.1064,0.23265 a 2.6047684,2.5791731 0 0 1 -0.013,5.15833 z"
       inkscape:connector-curvature="0"
       style="fill:#e6e6e6;stroke-width:0.36221957" />
    <path
       id="path1548"
       d="m 1940.695,521.16031 -102.1065,-0.23265 a 2.6047685,2.5791731 0 1 1 0.013,-5.15833 l 102.1065,0.23266 a 2.6047638,2.5791685 0 1 1 -0.013,5.15832 z"
       inkscape:connector-curvature="0"
       style="fill:#e6e6e6;stroke-width:0.36221957" />
    <ellipse
       id="circle1550"
       cy="394.48807"
       cx="1849.9961"
       style="fill:#3f3d56;stroke-width:0.36221957"
       rx="13.718425"
       ry="13.583623" />
    <path
       id="path1552"
       d="M 1871.0334,437.60825"
       inkscape:connector-curvature="0"
       style="fill:#e6e6e6;stroke-width:0.36221957" />
    <path
       id="path1554"
       d="m 1928.6467,390.48937 v -32.13884 a 18.363586,18.18314 0 0 0 -36.7173,-0.79962 h 4.0415 a 14.340194,14.199282 0 0 1 14.3084,-13.64909 c 0.07,0 0.1407,7.2e-4 0.2105,0.001 a 14.34913,14.208131 0 0 1 14.1175,14.41824 v 32.18455 c 0,0.082 0,0.16387 0,0.23829 a 9.6190289,9.5245089 0 0 1 -9.6053,9.39809 q -0.059,0 -0.1187,-7.2e-4 a 9.6238448,9.5292774 0 0 1 -9.4904,-9.65122 l 0.022,-31.92244 a 4.8397967,4.7922391 0 0 1 9.6777,-0.0314 v 24.3777 a 2.0198595,2.0000117 0 1 0 4.0397,0 l -4e-4,-24.40911 a 8.8791918,8.7919417 0 0 0 -17.7566,0.0303 l -0.022,31.92967 a 13.66301,13.528753 0 0 0 13.4809,13.67644 c 0.056,7.2e-4 0.1121,10e-4 0.1681,10e-4 a 13.666538,13.532246 0 0 0 13.6443,-13.35691 c 0,-0.10429 0,-0.20878 0,-0.29628 z"
       inkscape:connector-curvature="0"
       style="fill:#775a20;stroke-width:0.36221957" />
    <rect
       id="rect1556"
       height="2"
       width="557.10645"
       y="567.89685"
       x="0"
       style="fill:#3f3d56" />
    <path
       id="path1558"
       transform="translate(-226.3946,-164.99667)"
       d="m 800.12184,288.40018 h 77.631 V 249.7941 A 39.602,39.602 0 0 0 866.38313,221.9179 38.26248,38.26248 0 0 0 838.9347,210.36875 c -21.21455,0 -38.25757,16.86463 -38.801,38.39412 -0.006,0.35357 -0.0118,0.68939 -0.0118,1.03123 z"
       inkscape:connector-curvature="0"
       style="fill:#2f2e41" />
    <path
       id="path1560"
       transform="translate(-226.3946,-164.99667)"
       d="m 784.451,498.49329 v 0 A 11.60485,11.60485 0 0 0 797.343,485.104 l -2.94954,-18.025 h -14.54791 l -5.05167,16.50211 a 11.60486,11.60486 0 0 0 9.65712,14.91218 z"
       inkscape:connector-curvature="0"
       style="fill:#ffb9b9" />
    <path
       id="path1562"
       transform="translate(-226.3946,-164.99667)"
       d="m 962.60386,713.48452 -17.27566,2.12157 -89.106,-186.69838 -50.31162,186.69838 -18.18491,-5.45547 16.97258,-299.4448 80.01359,-4.24315 c 30.35687,35.93918 54.20162,190.75797 77.89202,307.02185 z"
       inkscape:connector-curvature="0"
       style="fill:#2f2e41" />
    <path
       id="path1564"
       transform="translate(-226.3946,-164.99667)"
       d="m 796.15182,735.00333 h -36.24646 a 6.50031,6.50031 0 0 1 -6.49468,-6.22971 v 0 a 6.50032,6.50032 0 0 1 3.389,-5.981 l 20.84769,-11.33822 12.8449,-3.42531 c 5.65461,6.47991 11.063,6.5137 16.2702,1.28449 l 1.70785,11.38568 a 12.45633,12.45633 0 0 1 -12.3185,14.30407 z"
       inkscape:connector-curvature="0"
       style="fill:#2f2e41" />
    <path
       id="path1566"
       transform="translate(-226.3946,-164.99667)"
       d="M 951.93585,735.00333 H 915.6894 a 6.50031,6.50031 0 0 1 -6.49468,-6.22971 v 0 a 6.50033,6.50033 0 0 1 3.389,-5.981 l 20.84769,-11.33822 12.8449,-3.42531 c 5.65461,6.47991 11.063,6.5137 16.2702,1.28449 l 1.70785,11.38568 a 12.45633,12.45633 0 0 1 -12.31851,14.30407 z"
       inkscape:connector-curvature="0"
       style="fill:#2f2e41" />
    <path
       id="path1568"
       transform="translate(-226.3946,-164.99667)"
       d="m 774.99624,471.32217 22.42805,-1.21232 13.94176,-161.84568 -10.55248,1.58283 a 17.85719,17.85719 0 0 0 -15.11409,15.82837 z"
       inkscape:connector-curvature="0"
       style="fill:#775a20" />
    <circle
       id="circle1570"
       r="29.702021"
       cy="84.469627"
       cx="606.79333"
       style="fill:#ffb9b9" />
    <path
       id="path1572"
       transform="translate(-226.3946,-164.99667)"
       d="m 868.95159,300.384 c -22.47578,65.62229 -42.23825,70.2055 -60.61636,43.64378 1.61856,-19.7939 8.18861,-35.83038 20.0034,-47.88692 6.86063,-4.70291 2.81061,-13.63866 -2.42465,-23.03422 l 28.48969,-9.69861 c 0.81179,11.97162 6.05401,24.33137 14.54792,36.97597 z"
       inkscape:connector-curvature="0"
       style="fill:#ffb9b9" />
    <path
       id="path1574"
       transform="translate(-226.3946,-164.99667)"
       d="m 886.22725,409.19041 c -32.54311,22.46717 -61.81581,26.61988 -81.22592,5.45547 -6.78693,-28.09813 -8.18824,-57.55542 -4.89388,-86.6668 A 31.09786,31.09786 0 0 1 814.06,305.4386 l 14.2786,-9.2977 6.97088,22.125 26.97428,-29.39893 20.3794,2.45958 a 15.044,15.044 0 0 1 13.15129,16.57973 z"
       inkscape:connector-curvature="0"
       style="fill:#775a20" />
    <path
       id="path1576"
       transform="translate(-226.3946,-164.99667)"
       d="m 866.44207,227.02612 -7.377,23.47067 -63.78052,-1.13352 a 39.42711,39.42711 0 0 1 71.15756,-22.33715 z"
       inkscape:connector-curvature="0"
       style="fill:#2f2e41" />
    <path
       id="path1578"
       transform="translate(-226.3946,-164.99667)"
       d="m 879.09818,473.26794 a 1.08511,1.08511 0 0 0 -1.08632,1.08134 L 877.745,590.31889 a 1.08511,1.08511 0 0 0 1.08134,1.08632 l 93.42588,0.215 a 1.08509,1.08509 0 0 0 1.08632,-1.08133 l 0.26687,-115.96961 a 1.08512,1.08512 0 0 0 -1.08134,-1.08633 z"
       inkscape:connector-curvature="0"
       style="fill:#e6e6e6" />
    <path
       id="path1580"
       transform="translate(-226.3946,-164.99667)"
       d="m 882.55839,476.74417 a 1.08512,1.08512 0 0 0 -1.08632,1.08134 l -0.2509,109.03311 a 1.0851,1.0851 0 0 0 1.08133,1.08632 l 86.48949,0.199 a 1.08512,1.08512 0 0 0 1.08632,-1.08134 l 0.2509,-109.03311 a 1.08509,1.08509 0 0 0 -1.08133,-1.08632 z"
       inkscape:connector-curvature="0"
       style="fill:#ffffff" />
    <path
       id="path1582"
       transform="translate(-226.3946,-164.99667)"
       d="M 957.55913,524.09063 893.83,523.944 a 1.6257443,1.6257443 0 1 1 0.007,-3.25148 l 63.72909,0.14665 a 1.6257443,1.6257443 0 1 1 -0.007,3.25148 z"
       inkscape:connector-curvature="0"
       style="fill:#e6e6e6" />
    <path
       id="path1584"
       transform="translate(-226.3946,-164.99667)"
       d="m 958.176,493.79889 -42.27982,-0.0973 c -0.59567,-0.001 -1.07689,-0.73036 -1.07482,-1.62822 0.002,-0.89786 0.48664,-1.62463 1.08231,-1.62326 l 42.27982,0.0973 c 0.59574,10e-4 1.07689,0.73036 1.07482,1.62822 -0.002,0.89786 -0.48656,1.62463 -1.08231,1.62326 z"
       inkscape:connector-curvature="0"
       style="fill:#e6e6e6" />
    <path
       id="path1586"
       transform="translate(-226.3946,-164.99667)"
       d="m 958.15456,503.11982 -42.27982,-0.0973 c -0.59567,-10e-4 -1.07689,-0.73036 -1.07482,-1.62822 0.002,-0.89786 0.48664,-1.62463 1.08231,-1.62326 l 42.27982,0.0973 c 0.59574,0.001 1.07689,0.73036 1.07482,1.62823 -0.002,0.89787 -0.48657,1.62463 -1.08231,1.62326 z"
       inkscape:connector-curvature="0"
       style="fill:#e6e6e6" />
    <path
       id="path1588"
       transform="translate(-226.3946,-164.99667)"
       d="m 957.53494,534.60376 -63.7291,-0.14665 a 1.6257443,1.6257443 0 0 1 0.007,-3.25148 l 63.7291,0.14665 a 1.6257443,1.6257443 0 0 1 -0.007,3.25148 z"
       inkscape:connector-curvature="0"
       style="fill:#e6e6e6" />
    <path
       id="path1590"
       transform="translate(-226.3946,-164.99667)"
       d="m 957.51074,545.1169 -63.72909,-0.14665 a 1.62575,1.62575 0 0 1 0.007,-3.25149 l 63.7291,0.14665 a 1.62575,1.62575 0 0 1 -0.007,3.25149 z"
       inkscape:connector-curvature="0"
       style="fill:#e6e6e6" />
    <path
       id="path1592"
       transform="translate(-226.3946,-164.99667)"
       d="m 957.48655,555.63 -63.72909,-0.14665 a 1.62575,1.62575 0 1 1 0.007,-3.25149 l 63.72909,0.14666 a 1.6257443,1.6257443 0 1 1 -0.007,3.25148 z"
       inkscape:connector-curvature="0"
       style="fill:#e6e6e6" />
    <path
       id="path1594"
       transform="translate(-226.3946,-164.99667)"
       d="m 957.46236,566.14316 -63.7291,-0.14665 a 1.6257443,1.6257443 0 1 1 0.007,-3.25148 l 63.72909,0.14665 a 1.6257443,1.6257443 0 1 1 -0.007,3.25148 z"
       inkscape:connector-curvature="0"
       style="fill:#e6e6e6" />
    <path
       id="path1596"
       transform="translate(-226.3946,-164.99667)"
       d="m 957.43817,576.6563 -63.7291,-0.14666 a 1.6257443,1.6257443 0 0 1 0.007,-3.25148 l 63.7291,0.14665 a 1.62575,1.62575 0 0 1 -0.007,3.25149 z"
       inkscape:connector-curvature="0"
       style="fill:#e6e6e6" />
    <circle
       id="circle1598"
       r="8.5622702"
       cy="331.81339"
       cx="674.43439"
       style="fill:#3f3d56" />
    <path
       id="path1600"
       transform="translate(-226.3946,-164.99667)"
       d="M 913.95937,523.9903"
       inkscape:connector-curvature="0"
       style="fill:#e6e6e6" />
    <path
       id="path1602"
       transform="translate(-226.3946,-164.99667)"
       d="m 910.41453,481.52071 v 0 a 11.60485,11.60485 0 0 1 -12.89194,-13.38929 l 2.94954,-18.025 H 915.02 l 5.05167,16.50211 a 11.60486,11.60486 0 0 1 -9.65714,14.91218 z"
       inkscape:connector-curvature="0"
       style="fill:#ffb9b9" />
    <path
       id="path1604"
       transform="translate(-226.3946,-164.99667)"
       d="m 919.86933,454.34959 -22.428,-1.21232 -13.94181,-161.84568 10.55248,1.58287 a 17.85718,17.85718 0 0 1 15.11409,15.82837 z"
       inkscape:connector-curvature="0"
       style="fill:#775a20" />
  </g>
</svg>
